<?xml version="1.0" standalone="no"?>
<!DOCTYPE svg PUBLIC "-//W3C//DTD SVG 20010904//EN"
 "http://www.w3.org/TR/2001/REC-SVG-20010904/DTD/svg10.dtd">
<svg version="1.0" xmlns="http://www.w3.org/2000/svg"
 width="675.000000pt" height="179.000000pt" viewBox="0 0 675.000000 179.000000"
 preserveAspectRatio="xMidYMid meet">

<g transform="translate(0.000000,179.000000) scale(0.100000,-0.100000)"
fill="#000000" stroke="none">
<path d="M4435 1366 c-139 -35 -234 -126 -286 -277 -32 -91 -32 -247 0 -338
26 -75 79 -159 123 -196 158 -133 433 -124 572 20 204 210 160 625 -81 752
-98 52 -219 66 -328 39z m211 -101 c215 -64 284 -443 113 -621 -98 -102 -289
-111 -396 -19 -155 132 -155 458 0 590 71 61 181 81 283 50z"/>
<path d="M380 920 l0 -440 60 0 60 0 0 205 0 205 215 0 215 0 0 50 0 50 -215
0 -215 0 0 135 0 135 245 0 245 0 0 50 0 50 -305 0 -305 0 0 -440z"/>
<path d="M1110 920 l0 -440 60 0 60 0 0 440 0 440 -60 0 -60 0 0 -440z"/>
<path d="M1376 1348 c4 -7 70 -104 146 -215 l138 -202 -148 -213 c-82 -117
-152 -219 -156 -225 -5 -10 9 -13 62 -13 l69 0 118 175 c66 96 122 175 126
175 4 0 58 -79 121 -175 l113 -174 73 -1 c40 0 71 3 69 8 -3 4 -71 103 -151
221 -80 118 -146 218 -146 223 0 4 65 102 144 218 l145 210 -69 0 -70 0 -110
-165 c-61 -91 -112 -165 -114 -165 -2 0 -53 74 -113 165 l-108 165 -73 0 c-56
0 -71 -3 -66 -12z"/>
<path d="M2230 920 l0 -440 60 0 60 0 0 440 0 440 -60 0 -60 0 0 -440z"/>
<path d="M2460 1310 l0 -50 150 0 150 0 0 -390 0 -390 55 0 55 0 0 390 0 390
150 0 150 0 0 50 0 50 -355 0 -355 0 0 -50z"/>
<path d="M3280 920 l0 -440 60 0 60 0 2 352 3 352 220 -352 220 -351 68 -1 67
0 0 440 0 440 -60 0 -60 0 -2 -351 -3 -351 -215 349 -215 348 -73 3 -72 3 0
-441z"/>
<path d="M5030 1353 c0 -4 50 -203 112 -440 l111 -433 64 0 c35 0 63 2 63 5 0
15 193 701 199 708 4 4 52 -155 106 -353 l99 -360 61 0 61 0 82 313 c45 171
97 370 116 440 l34 128 -66 -3 -66 -3 -80 -352 c-44 -194 -83 -350 -86 -347
-3 3 -48 162 -100 352 l-96 347 -64 3 -65 3 -94 -348 c-52 -191 -97 -351 -101
-356 -3 -4 -42 151 -87 345 l-80 353 -61 3 c-34 2 -62 -1 -62 -5z"/>
</g>
</svg>
