<?xml version="1.0" standalone="no"?>
<!DOCTYPE svg PUBLIC "-//W3C//DTD SVG 20010904//EN"
 "http://www.w3.org/TR/2001/REC-SVG-20010904/DTD/svg10.dtd">
<svg version="1.0" xmlns="http://www.w3.org/2000/svg"
 width="360.000000pt" height="360.000000pt" viewBox="0 0 360.000000 360.000000"
 preserveAspectRatio="xMidYMid meet">

<g transform="translate(0.000000,360.000000) scale(0.100000,-0.100000)"
fill="#000000" stroke="none">
<path d="M217 2976 c-89 -32 -157 -101 -188 -191 -20 -58 -21 -1897 -1 -1966
20 -66 78 -137 142 -173 l55 -31 1565 -3 1565 -2 62 30 c70 34 121 89 150 160
17 43 18 96 18 990 0 759 -3 954 -13 991 -20 66 -78 137 -142 173 l-55 31
-1560 2 c-1295 2 -1566 0 -1598 -11z m2977 -195 c-45 -43 -1389 -1171 -1395
-1171 -4 0 -38 26 -76 58 -37 32 -347 294 -688 582 -341 287 -624 527 -629
531 -6 5 599 9 1394 9 834 0 1400 -4 1394 -9z m-2446 -549 c276 -233 502 -427
502 -431 0 -6 -901 -762 -1017 -854 l-23 -18 0 876 c0 834 1 877 18 864 9 -8
243 -205 520 -437z m2640 -866 l-3 -433 -515 428 c-283 236 -516 433 -518 437
-1 5 230 206 515 446 l518 437 3 -441 c1 -243 1 -636 0 -874z m-1790 147 c86
-72 167 -134 181 -136 41 -8 78 14 196 114 61 52 134 113 162 137 l51 42 516
-430 517 -430 -1421 0 -1420 0 516 430 c441 367 519 429 532 418 8 -7 85 -72
170 -145z"/>
</g>
</svg>
