<?xml version="1.0" standalone="no"?>
<!DOCTYPE svg PUBLIC "-//W3C//DTD SVG 20010904//EN"
 "http://www.w3.org/TR/2001/REC-SVG-20010904/DTD/svg10.dtd">
<svg version="1.0" xmlns="http://www.w3.org/2000/svg"
 width="612.000000pt" height="612.000000pt" viewBox="0 0 612.000000 612.000000"
 preserveAspectRatio="xMidYMid meet">

<g transform="translate(0.000000,612.000000) scale(0.100000,-0.100000)"
fill="#000000" stroke="none">
<path d="M2963 5259 c-81 -52 -80 -171 3 -226 19 -12 61 -18 167 -24 286 -15
503 -69 756 -190 537 -255 933 -746 1072 -1328 26 -109 48 -277 49 -371 1
-103 13 -150 49 -182 42 -37 92 -45 143 -22 63 28 78 62 78 172 0 439 -165
917 -452 1304 -72 97 -263 295 -365 379 -187 154 -472 314 -689 388 -216 73
-485 121 -677 121 -85 0 -107 -4 -134 -21z"/>
<path d="M1705 4895 c-342 -89 -508 -208 -625 -450 -144 -295 -143 -670 3
-1115 117 -355 337 -736 631 -1090 166 -201 473 -493 691 -656 739 -557 1543
-753 2050 -501 69 34 176 111 221 159 84 88 167 265 219 462 28 111 24 154
-19 197 -27 27 -1046 439 -1085 439 -73 0 -103 -21 -281 -196 -96 -94 -186
-177 -199 -184 -47 -24 -115 -15 -188 26 -279 155 -605 431 -841 714 -106 128
-262 350 -308 443 -29 56 -35 128 -14 168 7 13 90 103 184 199 149 152 174
182 185 222 8 27 11 61 8 77 -3 15 -97 255 -207 532 -135 337 -210 513 -228
532 -21 22 -79 48 -102 46 -3 0 -45 -11 -95 -24z"/>
<path d="M2984 4746 c-71 -32 -100 -111 -66 -181 25 -52 69 -75 144 -75 72 0
250 -25 329 -45 302 -78 579 -255 770 -493 191 -237 295 -497 320 -802 14
-174 13 -170 49 -207 58 -59 153 -50 204 20 45 62 11 385 -64 611 -206 615
-732 1063 -1360 1160 -152 24 -290 29 -326 12z"/>
<path d="M2973 4214 c-44 -22 -78 -89 -69 -137 9 -47 48 -93 89 -105 18 -6 73
-13 122 -16 338 -21 648 -251 782 -579 33 -81 63 -225 63 -308 0 -79 24 -124
83 -152 52 -26 105 -16 148 29 l34 35 -1 112 c-5 472 -343 921 -809 1076 -170
56 -376 77 -442 45z"/>
</g>
</svg>
