<?xml version="1.0" standalone="no"?>
<!DOCTYPE svg PUBLIC "-//W3C//DTD SVG 20010904//EN"
 "http://www.w3.org/TR/2001/REC-SVG-20010904/DTD/svg10.dtd">
<svg version="1.0" xmlns="http://www.w3.org/2000/svg"
 width="1200.000000pt" height="1200.000000pt" viewBox="0 0 1200.000000 1200.000000"
 preserveAspectRatio="xMidYMid meet">

<g transform="translate(0.000000,1200.000000) scale(0.100000,-0.100000)"
fill="#000000" stroke="none">
<path d="M5925 9669 c-201 -11 -563 -56 -625 -78 -14 -5 -45 -12 -70 -16 -46
-6 -184 -43 -280 -75 -30 -10 -68 -21 -85 -25 -26 -5 -107 -35 -250 -92 -22
-9 -76 -33 -120 -53 -44 -21 -100 -47 -125 -59 -72 -33 -202 -104 -237 -128
-17 -13 -36 -23 -42 -23 -6 0 -11 -3 -11 -8 0 -4 -17 -16 -37 -27 -46 -24
-174 -113 -227 -157 -21 -18 -44 -35 -50 -37 -6 -2 -15 -9 -21 -15 -5 -7 -32
-29 -60 -50 -175 -132 -510 -490 -622 -666 -20 -30 -39 -57 -42 -60 -5 -4 -93
-138 -128 -195 -43 -70 -73 -126 -73 -135 0 -5 -4 -10 -9 -10 -5 0 -12 -13
-16 -30 -4 -16 -11 -32 -15 -35 -8 -5 -36 -60 -83 -165 -8 -19 -26 -60 -40
-90 -14 -30 -28 -66 -32 -80 -4 -14 -24 -70 -45 -125 -33 -87 -70 -206 -85
-270 -2 -11 -13 -56 -24 -100 -88 -362 -117 -731 -86 -1122 9 -120 19 -221 21
-225 3 -4 9 -34 15 -65 27 -156 40 -225 58 -298 29 -119 70 -267 81 -290 5
-11 17 -40 25 -65 43 -121 57 -159 76 -200 12 -25 28 -61 36 -80 8 -19 39 -86
69 -147 62 -127 76 -185 64 -258 -10 -62 -49 -223 -60 -250 -5 -11 -14 -40
-20 -65 -6 -25 -20 -76 -30 -115 -10 -38 -28 -108 -40 -155 -11 -47 -25 -94
-30 -105 -5 -11 -20 -63 -33 -115 -13 -52 -34 -129 -46 -170 -12 -41 -28 -104
-36 -140 -8 -36 -23 -92 -33 -125 -17 -53 -39 -132 -74 -270 -6 -22 -14 -51
-19 -65 -5 -14 -14 -47 -20 -75 -14 -64 -15 -66 -23 -90 -17 -43 -16 -45 17
-38 18 3 93 21 167 40 74 19 151 39 170 43 19 5 78 20 130 35 52 14 185 49
295 76 110 28 218 57 240 64 22 8 76 21 120 30 44 9 89 20 100 25 11 4 49 16
85 25 36 9 76 21 90 25 14 5 45 11 70 15 24 3 50 11 57 17 7 6 13 8 13 6 0 -6
67 10 165 38 35 10 96 17 145 17 91 1 68 9 405 -143 89 -40 416 -147 475 -155
8 -1 22 -5 30 -8 17 -7 116 -30 200 -47 51 -10 100 -18 270 -40 122 -16 472
-22 640 -12 160 11 205 16 395 47 249 40 614 148 808 239 43 20 80 36 83 36
16 0 309 155 343 182 13 10 27 18 31 18 14 0 300 196 320 219 3 3 31 26 62 49
31 24 79 64 105 88 26 25 70 64 97 87 61 53 213 212 288 302 18 22 39 44 45
48 7 4 13 13 13 19 0 6 8 18 18 27 10 9 34 39 52 66 19 28 47 64 62 80 15 17
28 34 28 39 0 4 15 29 33 55 37 52 38 54 112 177 30 50 59 102 65 115 6 13 20
40 31 59 12 19 39 75 61 125 22 49 43 92 46 95 4 3 17 32 28 65 12 33 40 107
62 165 100 263 176 622 203 955 18 218 5 623 -25 810 -51 313 -116 563 -199
771 -20 50 -37 94 -37 97 0 24 -162 348 -217 434 -18 29 -33 55 -33 58 0 5
-90 145 -100 155 -3 3 -9 12 -15 21 -29 46 -124 177 -150 205 -5 7 -39 47 -74
90 -142 173 -454 462 -651 602 -98 71 -283 190 -308 199 -9 4 -48 25 -87 48
-38 22 -104 56 -145 75 -41 19 -77 37 -80 40 -3 3 -43 20 -90 38 -47 18 -98
39 -115 47 -16 7 -91 32 -165 55 -74 23 -153 48 -175 55 -23 7 -75 20 -117 29
-41 9 -82 18 -89 21 -38 14 -422 63 -547 70 -62 3 -119 7 -125 9 -7 2 -84 -1
-172 -5z m502 -55 c-3 -3 -12 -4 -19 -1 -8 3 -5 6 6 6 11 1 17 -2 13 -5z m420
-60 c-3 -3 -12 -4 -19 -1 -8 3 -5 6 6 6 11 1 17 -2 13 -5z m-467 -493 c36 -6
94 -16 130 -22 201 -34 329 -65 455 -110 28 -10 61 -20 75 -24 14 -3 34 -10
45 -15 11 -5 65 -28 120 -50 108 -45 359 -173 382 -196 8 -8 19 -14 24 -14 25
0 272 -181 406 -297 40 -35 74 -63 76 -63 2 0 2 12 0 28 -5 38 35 104 77 124
39 19 96 23 134 9 31 -13 66 -42 66 -57 0 -6 7 -17 15 -24 17 -15 22 -140 5
-140 -6 0 -15 -11 -22 -25 -14 -30 -71 -58 -109 -53 -37 6 -38 8 66 -107 15
-16 39 -46 54 -65 14 -19 28 -37 31 -40 3 -3 23 -30 46 -60 111 -150 157 -219
182 -270 7 -14 22 -41 33 -60 12 -19 44 -80 71 -135 27 -55 54 -108 59 -119 6
-10 25 -57 43 -105 18 -47 37 -95 41 -106 32 -81 58 -159 70 -210 8 -33 24
-98 35 -145 11 -47 25 -114 31 -150 5 -36 14 -94 20 -129 39 -243 34 -624 -11
-921 -15 -97 -83 -362 -116 -453 -14 -40 -35 -99 -46 -132 -11 -33 -44 -109
-73 -170 -29 -60 -54 -114 -56 -120 -10 -26 -84 -150 -91 -153 -4 -2 -8 -8 -8
-13 0 -5 -12 -28 -27 -52 -83 -130 -98 -152 -105 -155 -4 -2 -8 -10 -8 -17 0
-7 -3 -15 -7 -17 -5 -1 -24 -23 -43 -48 -77 -99 -119 -149 -206 -246 -44 -47
-78 -92 -76 -98 2 -6 0 -8 -4 -4 -4 4 -43 -25 -88 -66 -90 -81 -215 -181 -297
-238 -79 -55 -160 -108 -166 -108 -2 0 -19 -11 -37 -25 -18 -14 -39 -25 -46
-25 -7 0 -21 -6 -29 -14 -9 -7 -43 -27 -76 -44 -310 -156 -561 -240 -927 -307
-292 -53 -822 -43 -1103 21 -94 22 -285 73 -310 84 -11 4 -60 22 -110 40 -146
53 -325 135 -480 223 -79 44 -98 51 -161 55 -59 4 -90 -1 -181 -27 -61 -17
-117 -31 -126 -31 -9 0 -49 -11 -89 -24 -40 -13 -113 -34 -163 -46 -49 -11
-121 -30 -160 -40 -38 -10 -125 -33 -192 -51 l-121 -31 18 -33 c11 -19 24 -60
31 -93 11 -51 10 -69 -5 -130 -24 -98 -37 -122 -109 -189 -73 -67 -130 -92
-232 -100 -143 -11 -261 61 -327 199 -24 48 -28 69 -28 142 0 74 4 94 30 148
37 79 107 149 185 185 52 24 72 28 147 27 97 -1 169 -22 193 -57 15 -21 15
-21 15 -1 0 11 11 63 25 115 14 51 41 155 61 229 19 74 41 153 48 175 8 22 29
87 46 145 17 58 36 115 41 128 16 40 10 202 -11 279 -17 66 -66 181 -81 193
-8 6 -129 246 -129 255 0 4 -14 37 -31 73 -35 76 -129 351 -129 378 0 10 -4
31 -9 48 -47 153 -69 289 -83 508 -16 246 0 572 37 753 15 72 30 148 35 170
16 79 46 184 71 240 4 11 15 43 23 70 28 99 199 474 219 483 4 2 7 8 7 14 0 5
11 24 25 42 14 18 25 36 25 41 0 12 124 196 158 235 18 19 32 38 32 42 0 4 6
13 13 20 7 7 33 40 59 73 65 84 206 228 318 325 52 45 108 94 124 107 15 14
47 38 70 54 22 16 64 45 91 65 74 52 153 104 160 104 4 0 19 8 33 19 64 44
410 211 439 211 4 0 20 7 36 15 39 20 277 91 382 114 50 11 113 25 141 31 160
35 340 49 594 45 140 -1 284 -8 320 -14z m-1015 -31 c-3 -5 -12 -10 -18 -10
-7 0 -6 4 3 10 19 12 23 12 15 0z m-1440 -60 c-3 -5 -12 -10 -18 -10 -7 0 -6
4 3 10 19 12 23 12 15 0z m-655 -600 c0 -5 -5 -10 -11 -10 -5 0 -7 5 -4 10 3
6 8 10 11 10 2 0 4 -4 4 -10z m395 -25 c28 -29 31 -37 13 -29 -14 5 -53 54
-44 54 3 0 17 -11 31 -25z m102 -101 c30 -30 53 -58 50 -61 -6 -5 -117 100
-117 111 0 14 15 3 67 -50z m5306 -304 c-3 -11 -9 -20 -15 -20 -5 0 -4 9 2 20
6 11 12 20 14 20 2 0 2 -9 -1 -20z m-203 -664 c0 -3 -4 -8 -10 -11 -5 -3 -10
-1 -10 4 0 6 5 11 10 11 6 0 10 -2 10 -4z m577 -118 c-3 -8 -6 -5 -6 6 -1 11
2 17 5 13 3 -3 4 -12 1 -19z m-440 -400 c-3 -8 -6 -5 -6 6 -1 11 2 17 5 13 3
-3 4 -12 1 -19z m610 -380 c-3 -8 -6 -5 -6 6 -1 11 2 17 5 13 3 -3 4 -12 1
-19z m-10 -610 c-3 -8 -6 -5 -6 6 -1 11 2 17 5 13 3 -3 4 -12 1 -19z m0 -190
c-3 -8 -6 -5 -6 6 -1 11 2 17 5 13 3 -3 4 -12 1 -19z m-7050 -510 c-3 -8 -6
-5 -6 6 -1 11 2 17 5 13 3 -3 4 -12 1 -19z m730 -480 c-3 -8 -6 -5 -6 6 -1 11
2 17 5 13 3 -3 4 -12 1 -19z m5930 -230 c-3 -8 -6 -5 -6 6 -1 11 2 17 5 13 3
-3 4 -12 1 -19z m-5810 -300 c-3 -8 -6 -5 -6 6 -1 11 2 17 5 13 3 -3 4 -12 1
-19z m5583 -88 c0 -5 -4 -10 -10 -10 -5 0 -10 5 -10 10 0 6 5 10 10 10 6 0 10
-4 10 -10z m-783 -165 c8 -9 13 -19 10 -22 -6 -5 -37 21 -37 31 0 10 11 6 27
-9z m59 -63 c42 -40 68 -72 60 -72 -8 0 -96 88 -96 95 0 10 9 4 36 -23z m-516
-282 c-8 -5 -19 -10 -25 -10 -5 0 -3 5 5 10 8 5 20 10 25 10 6 0 3 -5 -5 -10z
m-3933 -176 c-3 -3 -12 -4 -19 -1 -8 3 -5 6 6 6 11 1 17 -2 13 -5z m-217 -64
c0 -5 -10 -10 -22 -9 -22 0 -22 1 -3 9 11 5 21 9 23 9 1 1 2 -3 2 -9z m4420
-204 c0 -3 -4 -8 -10 -11 -5 -3 -10 -1 -10 4 0 6 5 11 10 11 6 0 10 -2 10 -4z
m-1623 -52 c-3 -3 -12 -4 -19 -1 -8 3 -5 6 6 6 11 1 17 -2 13 -5z m350 -490
c-3 -3 -12 -4 -19 -1 -8 3 -5 6 6 6 11 1 17 -2 13 -5z"/>
<path d="M8202 8370 c-54 -33 -66 -85 -34 -150 18 -37 32 -40 104 -27 42 9 68
42 68 87 0 17 7 38 15 46 8 9 15 20 15 25 0 20 -19 7 -51 -33 -18 -24 -50 -58
-72 -77 l-38 -34 -21 20 -20 21 26 23 c14 12 26 27 26 33 0 6 14 19 31 29 34
19 34 36 2 48 -13 5 -31 1 -51 -11z"/>
<path d="M8205 8160 c3 -5 8 -10 11 -10 2 0 4 5 4 10 0 6 -5 10 -11 10 -5 0
-7 -4 -4 -10z"/>
<path d="M4660 7691 c-63 -13 -114 -48 -190 -129 -110 -118 -103 -109 -174
-229 -40 -69 -83 -190 -106 -302 -24 -114 -24 -265 -1 -391 28 -152 100 -327
208 -502 29 -48 53 -91 53 -96 0 -5 8 -17 18 -28 9 -10 39 -53 66 -94 49 -74
218 -303 243 -328 7 -7 13 -17 13 -20 0 -4 19 -28 43 -53 23 -25 62 -68 85
-95 97 -109 306 -314 409 -401 85 -72 217 -174 245 -191 15 -9 28 -20 28 -24
0 -4 4 -8 9 -8 5 0 53 -30 107 -66 54 -36 108 -70 119 -75 11 -5 47 -25 80
-45 237 -139 561 -258 825 -304 180 -32 309 -35 430 -11 139 27 271 78 341
133 20 15 41 28 46 28 17 0 125 114 168 176 23 34 52 88 64 120 12 33 28 68
34 79 6 11 13 83 15 161 l4 141 -28 21 c-16 12 -34 26 -40 31 -6 5 -44 25 -83
44 -39 19 -77 39 -84 44 -6 5 -35 19 -63 31 -28 12 -130 60 -227 107 -97 47
-181 85 -187 85 -5 0 -10 3 -10 8 0 7 -37 22 -111 44 -19 6 -48 8 -63 4 -29
-7 -124 -97 -166 -156 -13 -19 -68 -90 -122 -156 -100 -124 -138 -154 -195
-154 -107 0 -510 207 -688 354 -16 14 -61 51 -100 83 -106 87 -278 266 -357
373 -40 52 -74 97 -78 100 -4 3 -15 21 -26 40 -10 19 -26 42 -35 52 -9 10 -22
31 -30 46 -7 15 -20 38 -29 52 -25 39 -37 92 -29 124 10 36 51 97 109 161 67
75 101 121 139 189 31 54 34 70 35 135 0 50 -4 76 -12 79 -7 2 -12 11 -12 20
0 10 -6 29 -14 43 -7 15 -22 51 -31 80 -10 29 -31 79 -46 110 -16 32 -29 62
-29 68 0 11 -16 50 -61 148 -16 35 -29 67 -29 72 0 24 -111 229 -132 243 -48
32 -251 48 -348 29z m-171 -160 c7 -5 10 -14 7 -20 -5 -8 -11 -7 -22 3 -24 24
-14 35 15 17z m576 -1 c3 -5 1 -10 -4 -10 -6 0 -11 5 -11 10 0 6 2 10 4 10 3
0 8 -4 11 -10z m-509 -72 c12 -12 30 -30 40 -39 28 -23 65 -69 56 -69 -8 0
-115 101 -142 135 -14 17 -14 17 5 8 11 -6 29 -22 41 -35z m178 -187 c-6 -7
-64 51 -64 63 0 6 15 -5 34 -24 18 -19 32 -37 30 -39z m413 17 c-3 -8 -6 -5
-6 6 -1 11 2 17 5 13 3 -3 4 -12 1 -19z m-367 -50 c11 -12 20 -25 20 -30 0 -4
5 -8 11 -8 10 0 302 -287 310 -305 2 -6 21 -23 42 -38 20 -15 37 -35 37 -43 0
-7 6 -14 13 -14 15 0 71 -69 62 -78 -3 -3 -9 -1 -13 5 -10 16 -105 113 -291
297 -83 83 -151 153 -151 157 0 4 -8 10 -17 14 -21 7 -69 65 -54 65 6 0 19
-10 31 -22z m540 -537 c7 -13 7 -22 0 -26 -5 -3 -10 1 -10 9 0 9 -4 16 -10 16
-5 0 -10 5 -10 10 0 17 19 11 30 -9z m-10 -55 c0 -2 -7 -7 -16 -10 -8 -3 -12
-2 -9 4 6 10 25 14 25 6z m-753 -668 c-3 -8 -6 -5 -6 6 -1 11 2 17 5 13 3 -3
4 -12 1 -19z m1078 -448 c3 -5 2 -10 -4 -10 -5 0 -13 5 -16 10 -3 6 -2 10 4
10 5 0 13 -4 16 -10z m1101 -257 c10 -10 26 -27 34 -37 13 -18 13 -19 0 -11
-23 13 -60 48 -60 57 0 12 5 10 26 -9z m276 -291 c-10 -3 -52 32 -52 43 0 8
-90 95 -98 95 -5 0 -21 18 -38 40 -16 22 -33 40 -37 40 -5 0 -6 4 -3 9 3 4 58
-44 122 -107 64 -64 111 -118 106 -120z m-455 82 c-3 -3 -12 -4 -19 -1 -8 3
-5 6 6 6 11 1 17 -2 13 -5z m510 -125 c16 -18 34 -37 41 -43 50 -42 352 -349
348 -353 -2 -3 -82 72 -176 166 -94 94 -174 171 -177 171 -5 0 -39 35 -71 74
-25 30 8 16 35 -15z m423 -419 c0 -5 -4 -10 -10 -10 -5 0 -10 5 -10 10 0 6 5
10 10 10 6 0 10 -4 10 -10z m35 -34 c8 -7 11 -16 8 -19 -5 -6 -33 17 -33 27 0
10 11 7 25 -8z m-1238 -12 c-3 -3 -12 -4 -19 -1 -8 3 -5 6 6 6 11 1 17 -2 13
-5z m1043 -104 c0 -5 -5 -10 -11 -10 -5 0 -7 5 -4 10 3 6 8 10 11 10 2 0 4 -4
4 -10z"/>
<path d="M2916 3253 c-29 -5 -34 -8 -84 -53 -73 -65 -82 -192 -19 -262 35 -39
95 -80 101 -69 3 5 0 11 -6 14 -9 2 -13 26 -12 75 0 68 2 72 45 126 24 30 47
55 50 56 4 0 14 -26 24 -57 21 -66 13 -115 -36 -210 -16 -31 -29 -66 -29 -77
0 -26 36 -106 48 -106 4 0 18 -9 31 -21 14 -14 28 -18 39 -13 15 6 15 8 -3 12
-27 6 -91 75 -97 104 -6 32 34 102 60 106 28 4 85 59 107 101 9 18 19 57 22
86 7 69 -20 119 -92 170 -22 15 -104 26 -149 18z"/>
<path d="M3255 3160 c-3 -6 1 -7 9 -4 18 7 21 14 7 14 -6 0 -13 -4 -16 -10z"/>
</g>
</svg>
